<svg xmlns="http://www.w3.org/2000/svg" width="692.432" height="325.633" viewBox="0 0 692.432 325.633">
  <g id="Group_8" data-name="Group 8" transform="translate(-1120 -157.43)">
    <path id="Path_1" data-name="Path 1" d="M542.478,459.881H427.909L665.385,224.43V549.551h-86.84l.339-80.633V424.2Z" transform="translate(786.014 -67)" fill="#272322"/>
    <path id="Path_2" data-name="Path 2" d="M416.38,471.984l111.45.232-77.71,72.438-111.7.015Z" transform="translate(781.576 -61.865)" fill="#272322"/>
    <path id="Path_4" data-name="Path 4" d="M118.955,0H88.245V-11.1h-.37A24.014,24.014,0,0,1,75.572-.093,44.389,44.389,0,0,1,57.9,3.515q-23.125,0-37.37-15.725T6.29-51.43q0-22.94,14.43-38.85T57.9-106.19a43.08,43.08,0,0,1,17.482,3.608A26.267,26.267,0,0,1,87.875-91.76h.37v-10.915h30.71ZM88.245-51.43q0-11.285-7.308-18.685t-18.592-7.4q-11.1,0-18.222,7.677A26.591,26.591,0,0,0,37-51.06a25.273,25.273,0,0,0,7.4,18.315A24.351,24.351,0,0,0,62.53-25.16a24.484,24.484,0,0,0,18.408-7.585A25.9,25.9,0,0,0,88.245-51.43ZM208.31-31.45q0,16.465-12.395,25.715T166.5,3.515q-16.835,0-28.49-8.88t-13.32-25.16h30.525A10.523,10.523,0,0,0,159.1-23.5a12.415,12.415,0,0,0,7.77,2.405,13.605,13.605,0,0,0,7.308-2.127,6.558,6.558,0,0,0,3.423-5.828,8.19,8.19,0,0,0-.463-2.775,7.878,7.878,0,0,0-1.387-2.405,17.288,17.288,0,0,0-1.758-1.85,11.775,11.775,0,0,0-2.5-1.573q-1.665-.833-2.5-1.2t-2.775-1.11q-1.942-.74-2.5-.925-8.88-2.96-13.32-4.625-24.42-8.88-24.42-26.825,0-15.355,11.932-24.6a44.145,44.145,0,0,1,27.843-9.25q16.095,0,27.01,8.325t12.4,24.05H175.01q-.185-7.77-9.62-7.77a10.347,10.347,0,0,0-6.012,1.85A5.772,5.772,0,0,0,156.7-74.74q0,3.7,3.792,6.29a28.8,28.8,0,0,0,9.527,3.978A125.411,125.411,0,0,1,182.5-60.68a92.858,92.858,0,0,1,12.488,5.458,25.044,25.044,0,0,1,9.527,9.158A27.146,27.146,0,0,1,208.31-31.45Z" transform="translate(1478.692 331.602)" fill="#272322"/>
    <path id="Path_5" data-name="Path 5" d="M101.01-90.465q15.91,15.54,15.91,39.035T101.1-12.4Q85.285,3.145,61.6,3.145T22.108-12.4Q6.29-27.935,6.29-51.43T22.108-90.465q15.818-15.54,39.5-15.54T101.01-90.465ZM79.18-33.115A26.407,26.407,0,0,0,86.21-51.43a26.076,26.076,0,0,0-7.03-18.223A22.839,22.839,0,0,0,61.6-77.33,22.839,22.839,0,0,0,44.03-69.653,26.076,26.076,0,0,0,37-51.43a26.076,26.076,0,0,0,7.03,18.222A22.839,22.839,0,0,0,61.6-25.53,22.967,22.967,0,0,0,79.18-33.115ZM219.41,0H188.7V-56.055q0-10.175-3.33-15.725t-12.765-5.55q-9.99,0-13.783,5.643T155.03-55.87V0H124.32V-102.675h28.675V-91.76h.37q8.88-14.43,27.935-14.43a45.509,45.509,0,0,1,14.06,2.405,35.81,35.81,0,0,1,12.21,6.475q11.84,9.805,11.84,33.115ZM333.74-50.135a41.581,41.581,0,0,1-.74,8.14H256.04a21.116,21.116,0,0,0,8.048,14.152,25.231,25.231,0,0,0,16,5.273q11.1,0,18.685-9.62h31.45A61.636,61.636,0,0,1,310.152-6.475a49.189,49.189,0,0,1-30.062,9.8,52.419,52.419,0,0,1-38.48-15.91A52.419,52.419,0,0,1,225.7-51.06a53.976,53.976,0,0,1,15.725-38.85q15.725-16.28,38.11-16.28,23.31,0,38.757,16.28T333.74-50.135Zm-30.71-12.58A21.144,21.144,0,0,0,294.7-75.572,24.778,24.778,0,0,0,279.72-80.29a24.778,24.778,0,0,0-14.985,4.718,21.144,21.144,0,0,0-8.325,12.857Z" transform="translate(1478.692 479.733)" fill="#272322"/>
  </g>
</svg>
