<svg xmlns="http://www.w3.org/2000/svg" width="331.399" height="416.527" viewBox="0 0 331.399 416.527">
  <g id="Group_7" data-name="Group 7" transform="translate(-628.309 -157.43)">
    <path id="Path_1" data-name="Path 1" d="M542.478,459.881H427.909L665.385,224.43V549.551h-86.84l.339-80.633V424.2Z" transform="translate(294.322 -67)" fill="#272322"/>
    <path id="Path_2" data-name="Path 2" d="M416.38,471.984l111.45.232-77.71,72.438-111.7.015Z" transform="translate(289.885 -61.865)" fill="#272322"/>
    <path id="Path_3" data-name="Path 3" d="M66.229,0h-17.1V-6.18h-.206a13.37,13.37,0,0,1-6.85,6.128,24.714,24.714,0,0,1-9.836,2.008q-12.875,0-20.806-8.755T3.5-28.634a31.032,31.032,0,0,1,8.034-21.63q8.034-8.858,20.7-8.858a23.985,23.985,0,0,1,9.734,2.009,14.625,14.625,0,0,1,6.952,6.026h.206v-6.077h17.1Zm-17.1-28.634a14.2,14.2,0,0,0-4.069-10.4,13.93,13.93,0,0,0-10.351-4.12,13.224,13.224,0,0,0-10.146,4.275A14.8,14.8,0,0,0,20.6-28.428a14.071,14.071,0,0,0,4.12,10.2,13.558,13.558,0,0,0,10.094,4.223,13.632,13.632,0,0,0,10.249-4.223A14.418,14.418,0,0,0,49.131-28.634ZM115.978-17.51q0,9.167-6.9,14.317A26.614,26.614,0,0,1,92.7,1.957,25.406,25.406,0,0,1,76.838-2.987Q70.349-7.931,69.422-17H86.417a5.859,5.859,0,0,0,2.163,3.914,6.912,6.912,0,0,0,4.326,1.339,7.575,7.575,0,0,0,4.068-1.184,3.651,3.651,0,0,0,1.906-3.245,4.56,4.56,0,0,0-.257-1.545,4.386,4.386,0,0,0-.772-1.339,9.626,9.626,0,0,0-.979-1.03,6.556,6.556,0,0,0-1.391-.876q-.927-.464-1.39-.669t-1.545-.618q-1.082-.412-1.391-.515-4.944-1.648-7.416-2.575-13.6-4.944-13.6-14.935a16.467,16.467,0,0,1,6.644-13.7,24.578,24.578,0,0,1,15.5-5.15q8.961,0,15.038,4.635t6.9,13.39H97.438q-.1-4.326-5.356-4.326a5.761,5.761,0,0,0-3.348,1.03,3.214,3.214,0,0,0-1.493,2.781,4.18,4.18,0,0,0,2.111,3.5,16.035,16.035,0,0,0,5.3,2.215,69.824,69.824,0,0,1,6.952,2.111,51.7,51.7,0,0,1,6.952,3.038,13.943,13.943,0,0,1,5.3,5.1A15.114,15.114,0,0,1,115.978-17.51Zm79.31-32.857q8.858,8.652,8.858,21.733T195.34-6.9q-8.807,8.652-21.991,8.652T151.359-6.9q-8.807-8.652-8.807-21.733t8.807-21.733q8.807-8.652,21.99-8.652T195.288-50.367Zm-12.154,31.93a14.7,14.7,0,0,0,3.914-10.2,14.518,14.518,0,0,0-3.914-10.146,12.716,12.716,0,0,0-9.785-4.274,12.716,12.716,0,0,0-9.785,4.274,14.518,14.518,0,0,0-3.914,10.146,14.518,14.518,0,0,0,3.914,10.145,12.716,12.716,0,0,0,9.785,4.275A12.787,12.787,0,0,0,183.134-18.437ZM261.208,0h-17.1V-31.209q0-5.665-1.854-8.755t-7.107-3.09q-5.562,0-7.674,3.142t-2.111,8.806V0h-17.1V-57.165h15.965v6.077h.206q4.944-8.034,15.553-8.034a25.338,25.338,0,0,1,7.828,1.339,19.937,19.937,0,0,1,6.8,3.6q6.592,5.459,6.592,18.437Zm63.654-27.913a23.151,23.151,0,0,1-.412,4.532H281.6a11.757,11.757,0,0,0,4.48,7.88,14.047,14.047,0,0,0,8.91,2.936,12.8,12.8,0,0,0,10.4-5.356H322.9A34.317,34.317,0,0,1,311.729-3.605a27.386,27.386,0,0,1-16.737,5.459A29.185,29.185,0,0,1,273.568-7a29.185,29.185,0,0,1-8.858-21.424,30.052,30.052,0,0,1,8.755-21.63,28.407,28.407,0,0,1,21.218-9.064,28.5,28.5,0,0,1,21.579,9.064A30.972,30.972,0,0,1,324.862-27.913Zm-17.1-7a11.772,11.772,0,0,0-4.635-7.158,13.8,13.8,0,0,0-8.343-2.627,13.8,13.8,0,0,0-8.343,2.627,11.772,11.772,0,0,0-4.635,7.158Z" transform="translate(632.001 572)" fill="#272322"/>
  </g>
</svg>
